<svg width="96" height="24" viewBox="0 0 96 24" fill="none" xmlns="http://www.w3.org/2000/svg">
<g clip-path="url(#clip0_196_1055)">
<rect width="96" height="24" fill="white"/>
<g clip-path="url(#clip1_196_1055)">
<path d="M12 1C9.08328 1 6.28344 2.15964 4.22266 4.2218C2.15976 6.28478 1.00059 9.08256 1 12C1 14.9162 2.16016 17.716 4.22266 19.7782C6.28344 21.8404 9.08328 23 12 23C14.9167 23 17.7166 21.8404 19.7773 19.7782C21.8398 17.716 23 14.9162 23 12C23 9.0838 21.8398 6.28395 19.7773 4.2218C17.7166 2.15964 14.9167 1 12 1Z" fill="url(#paint0_linear_196_1055)"/>
<path d="M5.97927 11.0562C9.18645 9.65923 11.3246 8.73821 12.3936 8.29317C15.4496 7.0225 16.0838 6.80181 16.498 6.79433C16.5891 6.79287 16.7919 6.81539 16.9243 6.92238C17.0343 7.01262 17.0652 7.13465 17.0807 7.22033C17.0944 7.30592 17.1133 7.501 17.0979 7.65328C16.9329 9.39265 16.2161 13.6136 15.8518 15.5618C15.6988 16.3861 15.3946 16.6625 15.1007 16.6894C14.4613 16.7482 13.9766 16.2673 13.3579 15.8619C12.3902 15.2271 11.8436 14.8322 10.9035 14.2129C9.81724 13.4972 10.5219 13.1038 11.1407 12.461C11.3022 12.2927 14.1176 9.73262 14.1708 9.50042C14.1777 9.47137 14.1846 9.36309 14.1193 9.30603C14.0557 9.2488 13.9611 9.26839 13.8924 9.28386C13.7944 9.30586 12.2493 10.3282 9.25177 12.3506C8.81349 12.6521 8.41646 12.799 8.05896 12.7913C7.66708 12.7829 6.91083 12.5692 6.3488 12.3867C5.6613 12.1628 5.11302 12.0443 5.16115 11.664C5.18521 11.466 5.45849 11.2633 5.97927 11.0562Z" fill="white"/>
</g>
<path d="M17.0917 11.9009C17.0912 13.8219 17.5954 15.6977 18.5541 17.351L17 23L22.807 21.4842C24.4132 22.3546 26.2127 22.8107 28.0414 22.8109H28.0462C34.0832 22.8109 38.9974 17.9204 39 11.9095C39.0012 8.99673 37.8628 6.25777 35.7944 4.19713C33.7265 2.13667 30.9762 1.00133 28.0458 1C22.0081 1 17.0942 5.89017 17.0917 11.9009Z" fill="url(#paint1_linear_196_1055)"/>
<path d="M24.7609 7.45047C24.5608 7.02214 24.3501 7.0135 24.1598 7.00599C24.0039 6.99952 23.8257 7.00001 23.6477 7.00001C23.4695 7.00001 23.18 7.06455 22.9352 7.3218C22.6903 7.57931 22 8.20157 22 9.46719C22 10.7328 22.9575 11.956 23.091 12.1278C23.2246 12.2993 24.9394 14.9796 27.6552 16.0108C29.9122 16.8677 30.3716 16.6973 30.8614 16.6543C31.3514 16.6115 32.4423 16.0322 32.6649 15.4315C32.8876 14.8309 32.8876 14.316 32.8208 14.2084C32.7541 14.1012 32.5759 14.0369 32.3087 13.9083C32.0415 13.7797 30.7278 13.1573 30.4829 13.0714C30.2379 12.9856 30.0598 12.9428 29.8816 13.2004C29.7034 13.4576 29.1918 14.0369 29.0358 14.2084C28.88 14.3804 28.7241 14.4018 28.4569 14.2731C28.1896 14.1441 27.3291 13.8727 26.3082 12.9964C25.5139 12.3146 24.9776 11.4725 24.8218 11.2149C24.6659 10.9578 24.8051 10.8183 24.939 10.6902C25.0591 10.5749 25.2063 10.3898 25.3401 10.2396C25.4733 10.0894 25.5177 9.98219 25.6068 9.81063C25.696 9.63891 25.6514 9.48868 25.5847 9.36001C25.5177 9.23134 24.9985 7.9591 24.7609 7.45047Z" fill="white"/>
<path d="M53.8607 12.294C53.8607 20.4218 53.5216 21.5796 45.7801 21.5796C38.0386 21.5796 34.2365 26.1347 33.2471 12.294C33.2471 -1.54671 39.8526 2.13247 47.5941 2.13247C55.3356 2.13247 53.8607 4.16619 53.8607 12.294Z" fill="white"/>
<path d="M36.5464 3.1001C35 4.63779 35 7.11289 35 12.0625V12.9375C35 17.8872 35 20.3623 36.5464 21.8999C38.0929 23.4375 40.5821 23.4375 45.56 23.4375H46.44C51.4179 23.4375 53.9072 23.4375 55.4536 21.8999C57 20.3623 57 17.8872 57 12.9375V12.0625C57 7.11284 57 4.63774 55.4536 3.1001C53.9072 1.5625 51.4179 1.5625 46.44 1.5625H45.56C40.5821 1.5625 38.0928 1.5625 36.5464 3.1001ZM38.7125 8.21621H41.2242C41.3067 12.3907 43.1583 14.1589 44.625 14.5235V8.21616H46.99V11.8164C48.4383 11.6615 49.96 10.0208 50.4733 8.21616H52.8383C52.6448 9.1521 52.2592 10.0383 51.7056 10.8193C51.152 11.6003 50.4423 12.2594 49.6208 12.7552C50.538 13.208 51.3481 13.8491 51.9975 14.6363C52.647 15.4235 53.121 16.3388 53.3883 17.3216H50.785C50.5451 16.4679 50.057 15.7036 49.3818 15.1247C48.7067 14.5458 47.8746 14.1781 46.99 14.0677V17.3216H46.7058C41.6917 17.3216 38.8317 13.9037 38.7125 8.21616" fill="#0D99FF"/>
<path fill-rule="evenodd" clip-rule="evenodd" d="M58 1C56.9391 1 55.9217 1.42143 55.1716 2.17157C54.4214 2.92172 54 3.93913 54 5V19C54 20.0609 54.4214 21.0783 55.1716 21.8284C55.9217 22.5786 56.9391 23 58 23H72C73.0609 23 74.0783 22.5786 74.8284 21.8284C75.5786 21.0783 76 20.0609 76 19V5C76 3.93913 75.5786 2.92172 74.8284 2.17157C74.0783 1.42143 73.0609 1 72 1H58ZM65 4.627C64.283 4.627 63.189 4.806 62.27 5.587C61.409 6.319 60.749 7.538 60.655 9.499L60.457 9.419C60.0933 9.27631 59.6889 9.2772 59.3258 9.42151C58.9627 9.56581 58.6681 9.84273 58.5015 10.1962C58.335 10.5496 58.309 10.9532 58.4288 11.325C58.5487 11.6969 58.8054 12.0093 59.147 12.199L60.51 12.824C60.33 13.094 60.041 13.443 59.677 13.807C59.173 14.31 58.563 14.809 57.987 15.138C57.7756 15.2539 57.6143 15.4437 57.534 15.671C57.4901 15.8018 57.4877 15.943 57.527 16.0753C57.5664 16.2076 57.6457 16.3245 57.754 16.41C58.121 16.712 58.681 16.954 59.334 17.013C59.3873 17.2737 59.5093 17.481 59.7 17.635C59.945 17.833 60.256 17.899 60.527 17.925C60.732 17.945 60.955 17.945 61.151 17.945H61.331C61.589 17.948 61.756 17.965 61.854 18.006C61.989 18.062 62.152 18.164 62.364 18.305L62.491 18.389C62.665 18.506 62.861 18.637 63.069 18.761C63.592 19.073 64.241 19.373 65 19.373C65.759 19.373 66.408 19.073 66.931 18.76C67.139 18.637 67.335 18.506 67.508 18.39C67.5527 18.3593 67.5953 18.331 67.636 18.305C67.848 18.164 68.012 18.062 68.146 18.006C68.244 17.965 68.411 17.948 68.669 17.945H68.849C69.045 17.945 69.269 17.945 69.473 17.925C69.743 17.899 70.055 17.833 70.3 17.635C70.4923 17.478 70.6222 17.2574 70.666 17.013C71.319 16.954 71.879 16.713 72.246 16.41C72.3543 16.3245 72.4336 16.2076 72.473 16.0753C72.5123 15.943 72.5099 15.8018 72.466 15.671C72.386 15.4438 72.225 15.2541 72.014 15.138C71.437 14.808 70.826 14.31 70.324 13.808C70.0163 13.5064 69.7371 13.177 69.49 12.824L70.853 12.2C71.1946 12.0103 71.4513 11.6979 71.5712 11.326C71.691 10.9542 71.665 10.5506 71.4985 10.1972C71.3319 9.84374 71.0373 9.56681 70.6742 9.42251C70.3111 9.27821 69.9067 9.27731 69.543 9.42L69.345 9.499C69.251 7.539 68.591 6.319 67.73 5.587C66.811 4.806 65.717 4.627 65 4.627Z" fill="#FFCD29"/>
<path fill-rule="evenodd" clip-rule="evenodd" d="M90.0176 2.54964C86.0186 1.81679 81.8715 1.81679 77.8725 2.54964L77.4416 2.62779C76.3164 2.83342 75.2829 3.29104 74.4562 3.94968C73.6294 4.60832 73.0419 5.44216 72.7589 6.35834C71.747 9.6332 71.747 13.0632 72.7589 16.3381C73.0288 17.2118 73.576 18.0114 74.3448 18.6557C75.1137 19.2999 76.0769 19.7658 77.1365 20.0061L77.7276 22.8988C77.7465 22.9907 77.795 23.0767 77.8682 23.148C77.9414 23.2192 78.0366 23.2731 78.1438 23.3039C78.251 23.3348 78.3663 23.3415 78.4778 23.3234C78.5892 23.3053 78.6927 23.263 78.7775 23.201L82.2488 20.6553C84.8546 20.7843 87.4696 20.6134 90.0176 20.1478L90.4498 20.0697C91.575 19.864 92.6085 19.4064 93.4352 18.7478C94.262 18.0891 94.8495 17.2553 95.1325 16.3391C96.1444 13.0643 96.1444 9.63424 95.1325 6.35938C94.8494 5.44306 94.2617 4.60914 93.4347 3.95049C92.6077 3.29183 91.574 2.83429 90.4485 2.62884L90.0176 2.54964ZM78.9453 6.27393C78.709 6.24557 78.4681 6.28457 78.2627 6.38439H78.2449C77.7683 6.61364 77.3386 6.90229 76.9726 7.242C76.6675 7.53065 76.5023 7.82242 76.459 8.10378C76.4336 8.2705 76.4514 8.43932 76.5112 8.59875L76.534 8.60917C76.8772 9.43552 77.3247 10.2306 77.8712 10.9788C78.5763 12.0295 79.4435 13.0014 80.4515 13.8705L80.482 13.9059L80.5303 13.9351L80.5595 13.9632L80.5951 13.9882C81.659 14.817 82.8473 15.5314 84.1313 16.114C85.5994 16.7695 86.4904 17.079 87.0255 17.2082V17.2144C87.1819 17.254 87.3242 17.2717 87.4679 17.2717C87.9238 17.2449 88.3555 17.093 88.6932 16.8403C89.1063 16.5402 89.4558 16.187 89.7278 15.7941V15.7868C89.9833 15.3908 89.8969 15.0178 89.5283 14.7646C88.7885 14.2336 87.9878 13.7624 87.1374 13.3578C86.5679 13.1046 85.9896 13.2578 85.7557 13.5141L85.2562 14.031C84.9994 14.2873 84.5342 14.2519 84.5342 14.2519L84.5215 14.2581C81.0502 13.5318 80.1236 10.6506 80.1236 10.6506C80.1236 10.6506 80.0804 10.2587 80.4019 10.0587L81.0273 9.64601C81.3273 9.44594 81.5357 8.97285 81.2142 8.50601C80.7217 7.80932 80.1483 7.15325 79.502 6.54695C79.3606 6.40458 79.1626 6.30756 78.9427 6.27289M84.81 5.02139C84.6415 5.02139 84.4798 5.07628 84.3606 5.17399C84.2415 5.2717 84.1745 5.40423 84.1745 5.54241C84.1745 5.6806 84.2415 5.81312 84.3606 5.91083C84.4798 6.00854 84.6415 6.06344 84.81 6.06344C86.418 6.06344 87.7526 6.49381 88.8088 7.31911C89.3516 7.77032 89.7749 8.30489 90.052 8.89053C90.3303 9.4772 90.4574 10.1035 90.4244 10.7308C90.4209 10.7992 90.4339 10.8675 90.4626 10.9318C90.4913 10.9962 90.5351 11.0552 90.5917 11.1056C90.7058 11.2074 90.8647 11.2679 91.0332 11.2737C91.2018 11.2795 91.3663 11.2302 91.4904 11.1366C91.6146 11.043 91.6884 10.9127 91.6955 10.7746C91.7334 10.003 91.5772 9.23326 91.2366 8.5133C90.8944 7.78969 90.3734 7.13192 89.7062 6.58134L89.6935 6.57092C88.383 5.5445 86.7243 5.02139 84.81 5.02139ZM84.7668 6.73452C84.5983 6.73452 84.4366 6.78941 84.3174 6.88713C84.1982 6.98484 84.1313 7.11736 84.1313 7.25555C84.1313 7.39373 84.1982 7.52626 84.3174 7.62397C84.4366 7.72168 84.5983 7.77657 84.7668 7.77657H84.7884C85.9477 7.84431 86.7916 8.16109 87.3827 8.68107C87.989 9.21669 88.303 9.88256 88.2788 10.7058C88.2749 10.844 88.3382 10.9778 88.4546 11.0777C88.5711 11.1777 88.7312 11.2356 88.8997 11.2388C89.0683 11.242 89.2315 11.1901 89.3534 11.0947C89.4753 10.9992 89.546 10.8679 89.5499 10.7297C89.5804 9.64914 89.1559 8.7165 88.3144 7.97248V7.97039C87.4539 7.21386 86.273 6.81372 84.852 6.73556L84.8304 6.73348L84.7668 6.73452ZM84.7427 8.47996C84.6576 8.4738 84.5719 8.48176 84.4907 8.50336C84.4095 8.52496 84.3344 8.55976 84.27 8.60567C84.2055 8.65158 84.153 8.70767 84.1156 8.77058C84.0782 8.8335 84.0566 8.90195 84.0521 8.97186C84.0477 9.04176 84.0605 9.11168 84.0897 9.17744C84.119 9.24321 84.1641 9.30347 84.2224 9.35462C84.2806 9.40577 84.3509 9.44678 84.4289 9.47518C84.507 9.50358 84.5912 9.5188 84.6766 9.51993C85.2079 9.54285 85.5473 9.67415 85.7608 9.85025C85.9756 10.0274 86.1358 10.3119 86.165 10.7568C86.1666 10.8268 86.1853 10.8957 86.2201 10.9596C86.2549 11.0234 86.305 11.0809 86.3674 11.1285C86.4299 11.1762 86.5034 11.213 86.5836 11.2369C86.6637 11.2608 86.749 11.2712 86.8341 11.2674C86.9193 11.2637 87.0027 11.246 87.0794 11.2153C87.156 11.1846 87.2243 11.1416 87.2803 11.0888C87.3362 11.036 87.3786 10.9745 87.4049 10.908C87.4313 10.8415 87.441 10.7713 87.4335 10.7016C87.3929 10.0764 87.1539 9.52409 86.6645 9.11769C86.1726 8.71129 85.5028 8.5133 84.7427 8.47996Z" fill="#9747FF"/>
</g>
<defs>
<linearGradient id="paint0_linear_196_1055" x1="1101" y1="1" x2="1101" y2="2201" gradientUnits="userSpaceOnUse">
<stop stop-color="#2AABEE"/>
<stop offset="1" stop-color="#229ED9"/>
</linearGradient>
<linearGradient id="paint1_linear_196_1055" x1="1117" y1="2201" x2="1117" y2="1" gradientUnits="userSpaceOnUse">
<stop stop-color="#1FAF38"/>
<stop offset="1" stop-color="#60D669"/>
</linearGradient>
<clipPath id="clip0_196_1055">
<rect width="96" height="24" fill="white"/>
</clipPath>
<clipPath id="clip1_196_1055">
<rect width="22" height="22" fill="white" transform="translate(1 1)"/>
</clipPath>
</defs>
</svg>
