<svg width="132" height="24" viewBox="0 0 132 24" fill="none" xmlns="http://www.w3.org/2000/svg">
<rect width="132" height="24" fill="white"/>
<g clip-path="url(#clip0_196_1055)">
<path d="M8.3504 23H19.6474C22.602 23 24.9978 20.6042 24.9978 17.6496V6.3504C25 3.4024 22.613 1.0088 19.665 1H8.335C5.387 1.0088 3 3.4024 3 6.3504V17.6474C3 20.6042 5.3958 23 8.3504 23Z" fill="#100943"/>
<path d="M19.665 1H14C14 7.0742 18.9258 12 25 12V6.3504C25 3.4024 22.613 1.0088 19.665 1Z" fill="#ED143B"/>
<path d="M16.5894 11.4984H10.0906V8.9266H16.5894C16.97 8.9266 17.234 8.9926 17.366 9.1092C17.498 9.2258 17.5816 9.4392 17.5816 9.7516V10.6756C17.5816 11.0056 17.5002 11.219 17.366 11.3356C17.234 11.45 16.97 11.4984 16.5894 11.4984ZM17.036 6.5H7.33398V17.5H10.0906V13.9206H15.1704L17.5794 17.5H20.666L18.0084 13.9052C18.9874 13.76 19.4274 13.4586 19.7904 12.9658C20.1534 12.4708 20.336 11.6788 20.336 10.625V9.8C20.336 9.173 20.27 8.678 20.1534 8.2996C20.0368 7.9212 19.841 7.5912 19.5594 7.2942C19.2624 7.0126 18.9324 6.8168 18.5364 6.6848C18.1404 6.566 17.6454 6.5 17.036 6.5Z" fill="white"/>
</g>
<path fill-rule="evenodd" clip-rule="evenodd" d="M27 1C25.9391 1 24.9217 1.42143 24.1716 2.17157C23.4214 2.92172 23 3.93913 23 5V19C23 20.0609 23.4214 21.0783 24.1716 21.8284C24.9217 22.5786 25.9391 23 27 23H41C42.0609 23 43.0783 22.5786 43.8284 21.8284C44.5786 21.0783 45 20.0609 45 19V5C45 3.93913 44.5786 2.92172 43.8284 2.17157C43.0783 1.42143 42.0609 1 41 1H27ZM34 4.627C33.283 4.627 32.189 4.806 31.27 5.587C30.409 6.319 29.749 7.538 29.655 9.499L29.457 9.419C29.0933 9.27631 28.6889 9.2772 28.3258 9.42151C27.9627 9.56581 27.6681 9.84274 27.5015 10.1962C27.335 10.5496 27.309 10.9532 27.4288 11.325C27.5487 11.6969 27.8054 12.0093 28.147 12.199L29.51 12.824C29.33 13.094 29.041 13.443 28.677 13.807C28.173 14.31 27.563 14.809 26.987 15.138C26.7756 15.2539 26.6143 15.4437 26.534 15.671C26.4901 15.8018 26.4877 15.943 26.527 16.0753C26.5664 16.2076 26.6457 16.3245 26.754 16.41C27.121 16.712 27.681 16.954 28.334 17.013C28.3873 17.2737 28.5093 17.481 28.7 17.635C28.945 17.833 29.256 17.899 29.527 17.925C29.732 17.945 29.955 17.945 30.151 17.945H30.331C30.589 17.948 30.756 17.965 30.854 18.006C30.989 18.062 31.152 18.164 31.364 18.305L31.491 18.389C31.665 18.506 31.861 18.637 32.069 18.761C32.592 19.073 33.241 19.373 34 19.373C34.759 19.373 35.408 19.073 35.931 18.76C36.139 18.637 36.335 18.506 36.508 18.39C36.5527 18.3593 36.5953 18.331 36.636 18.305C36.848 18.164 37.012 18.062 37.146 18.006C37.244 17.965 37.411 17.948 37.669 17.945H37.849C38.045 17.945 38.269 17.945 38.473 17.925C38.743 17.899 39.055 17.833 39.3 17.635C39.4923 17.478 39.6222 17.2574 39.666 17.013C40.319 16.954 40.879 16.713 41.246 16.41C41.3543 16.3245 41.4336 16.2076 41.473 16.0753C41.5123 15.943 41.5099 15.8018 41.466 15.671C41.386 15.4438 41.225 15.2541 41.014 15.138C40.437 14.808 39.826 14.31 39.324 13.808C39.0163 13.5064 38.7371 13.177 38.49 12.824L39.853 12.2C40.1946 12.0103 40.4513 11.6979 40.5712 11.326C40.691 10.9542 40.665 10.5506 40.4985 10.1972C40.3319 9.84374 40.0373 9.56681 39.6742 9.42251C39.3111 9.27821 38.9067 9.27731 38.543 9.42L38.345 9.499C38.251 7.539 37.591 6.319 36.73 5.587C35.811 4.806 34.717 4.627 34 4.627Z" fill="#FFCD29"/>
<g clip-path="url(#clip1_196_1055)">
<path d="M53 1C50.0833 1 47.2834 2.15964 45.2227 4.2218C43.1598 6.28478 42.0006 9.08256 42 12C42 14.9162 43.1602 17.716 45.2227 19.7782C47.2834 21.8404 50.0833 23 53 23C55.9167 23 58.7166 21.8404 60.7773 19.7782C62.8398 17.716 64 14.9162 64 12C64 9.0838 62.8398 6.28395 60.7773 4.2218C58.7166 2.15964 55.9167 1 53 1Z" fill="url(#paint0_linear_196_1055)"/>
<path d="M46.9793 11.0562C50.1865 9.65924 52.3246 8.73822 53.3936 8.29317C56.4496 7.0225 57.0838 6.80182 57.498 6.79434C57.5891 6.79288 57.7919 6.81539 57.9243 6.92239C58.0343 7.01262 58.0652 7.13465 58.0807 7.22033C58.0944 7.30592 58.1133 7.501 58.0979 7.65328C57.9329 9.39266 57.2161 13.6136 56.8518 15.5618C56.6988 16.3861 56.3946 16.6625 56.1007 16.6894C55.4613 16.7482 54.9766 16.2673 54.3579 15.8619C53.3902 15.2271 52.8436 14.8322 51.9035 14.2129C50.8172 13.4972 51.5219 13.1038 52.1407 12.461C52.3022 12.2927 55.1176 9.73263 55.1708 9.50042C55.1777 9.47138 55.1846 9.3631 55.1193 9.30603C55.0557 9.2488 54.9611 9.26839 54.8924 9.28386C54.7944 9.30586 53.2493 10.3282 50.2518 12.3506C49.8135 12.6521 49.4165 12.799 49.059 12.7913C48.6671 12.7829 47.9108 12.5693 47.3488 12.3867C46.6613 12.1628 46.113 12.0443 46.1611 11.664C46.1852 11.466 46.4585 11.2633 46.9793 11.0562Z" fill="white"/>
</g>
<path d="M71.8668 1C65.8652 1 61 5.86519 61 11.8668C61 17.8684 65.8652 22.7336 71.8668 22.7336C77.8684 22.7336 82.7336 17.8684 82.7336 11.8668C82.7336 5.86519 77.8684 1 71.8668 1ZM78.3963 9.03588V10.6678C77.6267 10.6681 76.879 10.5174 76.1739 10.2199C75.7204 10.0284 75.298 9.78182 74.9117 9.48383L74.9233 14.5069C74.9184 15.6381 74.471 16.7008 73.661 17.5014C73.0018 18.1529 72.1667 18.5673 71.2614 18.7015C71.0486 18.7329 70.8323 18.7491 70.6133 18.7491C69.6442 18.7491 68.7241 18.4352 67.9717 17.8561C67.8301 17.7469 67.6947 17.6289 67.5657 17.5016C66.6879 16.6339 66.2354 15.4582 66.3114 14.2213C66.3696 13.2797 66.7466 12.3816 67.3749 11.678C68.2064 10.7466 69.3696 10.2295 70.6133 10.2295C70.832 10.2295 71.0486 10.246 71.2614 10.2773V10.8808V12.5594C71.0598 12.493 70.8444 12.4563 70.62 12.4563C69.4838 12.4563 68.5645 13.3833 68.5814 14.5205C68.5923 15.2481 68.9895 15.8839 69.5758 16.2345C69.8514 16.3992 70.1682 16.5014 70.5063 16.52C70.7712 16.5344 71.0257 16.4975 71.2612 16.4197C72.073 16.1515 72.6586 15.3891 72.6586 14.4898L72.6613 11.1259V4.98449H74.9088C74.9109 5.20714 74.9336 5.42448 74.9754 5.63505C75.1449 6.48725 75.6255 7.22667 76.2939 7.73065C76.8769 8.1704 77.6028 8.43096 78.3895 8.43096C78.39 8.43096 78.3965 8.43096 78.3961 8.43047L78.3963 9.03588Z" fill="black"/>
<path d="M79.0917 11.9009C79.0912 13.8219 79.5954 15.6977 80.5541 17.351L79 23L84.807 21.4842C86.4132 22.3546 88.2127 22.8107 90.0414 22.8109H90.0462C96.0832 22.8109 100.997 17.9204 101 11.9095C101.001 8.99673 99.8628 6.25777 97.7944 4.19713C95.7265 2.13667 92.9762 1.00133 90.0458 1C84.0081 1 79.0942 5.89017 79.0917 11.9009Z" fill="url(#paint1_linear_196_1055)"/>
<path d="M87.5424 8.37164C87.358 8.01827 87.1641 8.01114 86.9888 8.00494C86.8452 7.99961 86.6812 8.00001 86.5172 8.00001C86.3531 8.00001 86.0865 8.05325 85.8612 8.26549C85.6356 8.47793 85 8.9913 85 10.0354C85 11.0796 85.8817 12.0887 86.0046 12.2305C86.1276 12.3719 87.7067 14.5832 90.2075 15.4339C92.2859 16.1408 92.7088 16.0002 93.1599 15.9648C93.611 15.9295 94.6156 15.4515 94.8206 14.956C95.0257 14.4605 95.0257 14.0357 94.9642 13.947C94.9027 13.8585 94.7386 13.8054 94.4926 13.6993C94.2465 13.5932 93.0368 13.0797 92.8113 13.0089C92.5858 12.9381 92.4217 12.9028 92.2577 13.1153C92.0936 13.3275 91.6224 13.8054 91.4788 13.947C91.3354 14.0888 91.1917 14.1065 90.9458 14.0003C90.6996 13.8938 89.9072 13.67 88.9671 12.9471C88.2357 12.3845 87.7419 11.6898 87.5984 11.4773C87.4548 11.2651 87.583 11.1501 87.7064 11.0444C87.8169 10.9493 87.9525 10.7966 88.0756 10.6727C88.1983 10.5487 88.2392 10.4603 88.3213 10.3188C88.4034 10.1771 88.3623 10.0532 88.3009 9.947C88.2393 9.84085 87.7611 8.79125 87.5424 8.37164Z" fill="white"/>
<g clip-path="url(#clip2_196_1055)">
<path d="M108.46 1C113.423 1 115.916 1 117.448 2.55246C119 4.10492 119 6.5766 119 11.5404V12.4596C119 17.4234 119 19.9155 117.448 21.4475C115.895 22.9796 113.423 23 108.46 23H107.54C102.577 23 100.084 23 98.5525 21.4475C97 19.9155 97 17.4234 97 12.4596V11.5404C97 6.5766 97 4.08449 98.5525 2.55246C100.084 1 102.577 1 107.54 1H108.46Z" fill="#0077FF"/>
<path fill-rule="evenodd" clip-rule="evenodd" d="M114.261 22.7957C112.831 23 110.952 23 108.44 23H107.52C102.557 23 100.065 23 98.5325 21.4475C97.6746 20.5896 97.2865 19.4253 97.123 17.7298C97.3273 16.3816 97.7767 14.727 98.3487 12.5617L98.5734 11.6834C99.8399 6.94429 100.473 4.59517 102.352 3.51253C104.048 2.55246 106.152 2.98143 110.053 4.00278C113.935 5.06499 115.977 5.75952 116.958 7.43454C118.061 9.31383 117.428 11.663 116.161 16.402L115.936 17.2804C115.324 19.6908 114.833 21.468 114.261 22.7957Z" fill="#D357FF"/>
<path d="M106.233 6.37233C106.192 5.80037 105.702 5.3714 105.13 5.41225C104.558 5.45311 104.129 5.94336 104.17 6.51532L104.374 9.94707C104.415 10.519 104.905 10.948 105.477 10.9071C106.049 10.8663 106.478 10.376 106.437 9.80408L106.233 6.37233ZM110.951 6.90343C111.094 6.3519 110.768 5.77994 110.216 5.63695C109.665 5.49396 109.093 5.8208 108.95 6.37233L108.01 10.0288C107.867 10.5803 108.194 11.1523 108.745 11.2953C109.297 11.4383 109.869 11.1114 110.012 10.5599L110.951 6.90343ZM105.988 14.0121C105.865 13.9304 105.681 13.8691 105.436 13.9099C105.068 13.9508 104.701 14.2776 104.701 14.9721C104.701 16.7697 106.151 18.2201 107.949 18.2201C109.746 18.2201 111.197 16.7697 111.197 14.9721C111.197 14.4615 111.013 13.7874 110.788 13.4197C110.482 12.9294 110.645 12.2962 111.115 11.9898C111.605 11.6834 112.238 11.8468 112.545 12.3166C112.545 12.3166 112.545 12.337 112.565 12.337C112.994 13.0724 113.26 14.1142 113.26 14.9517C113.26 17.8932 110.89 20.2832 107.949 20.2832C105.007 20.2832 102.617 17.9136 102.617 14.9721C102.617 13.4605 103.618 12.0511 105.171 11.8468C106.703 11.6629 107.724 12.5617 108.194 13.5014C108.439 14.0121 108.235 14.6249 107.724 14.8904C107.213 15.156 106.6 14.9313 106.335 14.4206C106.253 14.2368 106.131 14.0938 105.988 14.0121Z" fill="white"/>
</g>
<defs>
<linearGradient id="paint0_linear_196_1055" x1="1142" y1="1" x2="1142" y2="2201" gradientUnits="userSpaceOnUse">
<stop stop-color="#2AABEE"/>
<stop offset="1" stop-color="#229ED9"/>
</linearGradient>
<linearGradient id="paint1_linear_196_1055" x1="1179" y1="2201" x2="1179" y2="1" gradientUnits="userSpaceOnUse">
<stop stop-color="#1FAF38"/>
<stop offset="1" stop-color="#60D669"/>
</linearGradient>
<clipPath id="clip0_196_1055">
<rect width="22" height="22" fill="white" transform="translate(3 1)"/>
</clipPath>
<clipPath id="clip1_196_1055">
<rect width="22" height="22" fill="white" transform="translate(42 1)"/>
</clipPath>
<clipPath id="clip2_196_1055">
<rect width="22" height="22" fill="white" transform="translate(97 1)"/>
</clipPath>
</defs>
</svg>
